<svg xmlns="http://www.w3.org/2000/svg" viewBox="0 0 128 128">
  <rect width="128" height="128" rx="24" fill="#1e3a8a"/>
  <rect x="22" y="20" width="52" height="66" rx="4" fill="#fff"/>
  <rect x="30" y="30" width="36" height="5" rx="2.5" fill="#94a3b8"/>
  <rect x="30" y="41" width="36" height="5" rx="2.5" fill="#94a3b8"/>
  <rect x="30" y="52" width="24" height="5" rx="2.5" fill="#94a3b8"/>
  <path d="M58 70h40a4 4 0 0 1 4 4v30a4 4 0 0 1-4 4H58a4 4 0 0 1-4-4V74a4 4 0 0 1 4-4z" fill="#f59e0b"/>
  <path d="M54 84h48v6H54z" fill="#fff"/>
  <text x="78" y="102" font-family="Arial, sans-serif" font-size="14" fill="#fff" text-anchor="middle" font-weight="bold">入库</text>
</svg>
